<svg
  fill="none"
  height="32"
  viewBox="0 0 56 59"
  width="32"
  xmlns="http://www.w3.org/2000/svg"
>
  <path
    d="M36.4338 6.08866H32.8555C32.4452 6.08862 32.0453 5.95872 31.7133 5.71754C31.3813 5.47636 31.1342 5.1363 31.0073 4.74606L29.9016 1.34266C29.7748 0.952395 29.5277 0.612295 29.1957 0.371101C28.8638 0.129906 28.4639 0 28.0536 0C27.6433 0 27.2435 0.129906 26.9115 0.371101C26.5795 0.612295 26.3324 0.952395 26.2056 1.34266L25.0998 4.74606C24.9729 5.1363 24.7258 5.47637 24.3938 5.71755C24.0619 5.95873 23.662 6.08863 23.2517 6.08866H19.6733C19.263 6.08878 18.8634 6.21875 18.5315 6.45995C18.1996 6.70114 17.9526 7.04118 17.8258 7.43135C17.699 7.82153 17.699 8.24182 17.8257 8.63202C17.9524 9.02222 18.1994 9.3623 18.5312 9.60355L21.4263 11.7068C21.7582 11.948 22.0053 12.2881 22.1321 12.6783C22.2589 13.0686 22.2589 13.4889 22.1321 13.8792L21.0264 17.2825C20.8996 17.6727 20.8996 18.0931 21.0264 18.4833C21.1531 18.8736 21.4002 19.2137 21.7322 19.4549C22.0641 19.6961 22.4639 19.8261 22.8743 19.8261C23.2846 19.8261 23.6844 19.6962 24.0164 19.4551L26.9113 17.3516C27.2433 17.1105 27.6432 16.9806 28.0535 16.9806C28.4638 16.9806 28.8637 17.1105 29.1957 17.3516L32.0907 19.4551C32.4227 19.6962 32.8225 19.8261 33.2328 19.8261C33.6432 19.8261 34.043 19.6961 34.3749 19.4549C34.7069 19.2137 34.954 18.8736 35.0808 18.4833C35.2075 18.0931 35.2075 17.6727 35.0807 17.2825L33.9755 13.8796C33.8487 13.4893 33.8487 13.069 33.9755 12.6787C34.1023 12.2885 34.3494 11.9484 34.6813 11.7072L37.5755 9.60355C37.9073 9.36232 38.1542 9.02227 38.281 8.63211C38.4077 8.24195 38.4077 7.8217 38.2809 7.43154C38.1542 7.04139 37.9073 6.70135 37.5755 6.46012C37.2437 6.2189 36.844 6.08887 36.4338 6.08866Z"
    fill="#db2777"
  />
  <path
    d="M22.8255 25.0497H32.7925C33.1182 25.0497 33.4407 25.1139 33.7416 25.2385C34.0424 25.3632 34.3158 25.5458 34.5461 25.7761C34.7764 26.0064 34.9591 26.2798 35.0837 26.5807C35.2084 26.8816 35.2725 27.2041 35.2725 27.5297V56.2469C35.2725 56.9045 35.0113 57.5352 34.5463 58.0002C34.0813 58.4652 33.4506 58.7264 32.793 58.7264H22.8266C22.1689 58.7264 21.5381 58.4652 21.073 58.0001C20.6079 57.535 20.3466 56.9042 20.3466 56.2464V27.5292C20.3466 26.8717 20.6078 26.2412 21.0726 25.7762C21.5375 25.3112 22.168 25.0499 22.8255 25.0497Z"
    fill="#db2777"
  />
  <path
    d="M2.479 33.7578H12.4455C12.7712 33.7577 13.0936 33.8218 13.3945 33.9464C13.6954 34.0709 13.9688 34.2536 14.1991 34.4838C14.4294 34.7141 14.6121 34.9874 14.7367 35.2883C14.8613 35.5891 14.9255 35.9116 14.9255 36.2373V56.2472C14.9255 56.905 14.6642 57.5358 14.1991 58.0009C13.734 58.466 13.1032 58.7273 12.4455 58.7273H2.48C1.82226 58.7273 1.19147 58.466 0.726375 58.0009C0.261285 57.5358 0 56.905 0 56.2472V36.2373C-1.33687e-08 35.5797 0.261164 34.9491 0.726052 34.4842C1.19094 34.0192 1.82148 33.7579 2.479 33.7578Z"
    fill="#db2777"
  />
  <path
    d="M43.1733 33.7578H53.1401C53.7978 33.7578 54.4286 34.019 54.8937 34.4841C55.3588 34.9492 55.6201 35.58 55.6201 36.2378V56.247C55.6201 56.9047 55.3588 57.5355 54.8937 58.0006C54.4286 58.4657 53.7978 58.727 53.1401 58.727H43.1743C42.5166 58.727 41.8858 58.4657 41.4207 58.0006C40.9556 57.5355 40.6943 56.9047 40.6943 56.247V36.2369C40.6944 35.5795 40.9556 34.949 41.4205 34.4841C41.8853 34.0191 42.5158 33.7579 43.1733 33.7578Z"
    fill="#db2777"
  />
</svg>